# xmcd
#
# Track frame offsets: 
#        150
#        20085
#        46260
#        70410
#        101732
#        125357
#        156312
#        178675
#
# Disc length: 2699 seconds
#
# Revision: 5
# Processed by: cddbd v1.5.2PL0 Copyright (c) Steve Scherf et al.
# Submitted via: ExactAudioCopyFreeDBPlugin 1.0
#
DISCID=6d0a8908
DTITLE=Hot Tuna - America's Choice
DYEAR=1975
DGENRE=Rock and Roll
TTITLE0=Sleep Song
TTITLE1=Funky #7
TTITLE2=Walkin' Blues
TTITLE3=Invitation
TTITLE4=Hit Single #1
TTITLE5=Serpent of Dreams
TTITLE6=I Don't Wanna Go
TTITLE7=Great Divide: Revisited
EXTD=WARNING: This album to be played at full volume for maximum effec
EXTD=t YEAR: 1975
EXTT0=
EXTT1=
EXTT2=
EXTT3=
EXTT4=
EXTT5=
EXTT6=
EXTT7=
PLAYORDER=
